Season 1, Episode 3: Helping Hand
Original Air Date—4 March 2011
During the autopsy of a young woman murdered in a seedy hotel room, Megan is shocked to discover her own special connection to the victim. Meanwhile, after learning to her surprise of some personal challenges her colleagues are dealing with, Megan realizes how much goes on around her that she's been missing, and takes a sudden interest, much to her colleagues' amusement.

General
Complete name                    : Body of Proof S01E03 HDTV_JHW.mp4
Format                           : MPEG-4
Format profile                   : Base Media
Codec ID                         : isom
File size                        : 387 MiB
Duration                         : 41mn 43s
Overall bit rate                 : 1 298 Kbps
Encoded date                     : UTC 2011-04-06 03:57:05
Tagged date                      : UTC 2011-04-06 03:57:05

Video
ID                               : 2
Format                           : AVC
Format/Info                      : Advanced Video Codec
Format profile                   : Baseline@L3.0
Format settings, CABAC           : No
Format settings, ReFrames        : 1 frame
Codec ID                         : avc1
Codec ID/Info                    : Advanced Video Coding
Duration                         : 41mn 43s
Bit rate mode                    : Constant
Bit rate                         : 1 200 Kbps
Width                            : 720 pixels
Height                           : 400 pixels
Display aspect ratio             : 16:9
Frame rate mode                  : Constant
Frame rate                       : 29.970 fps
Color space                      : YUV
Chroma subsampling               : 4:2:0
Bit depth                        : 8 bits
Scan type                        : Progressive
Bits/(Pixel*Frame)               : 0.139
Stream size                      : 357 MiB (92%)
Language                         : English

Audio
ID                               : 1
Format                           : AAC
Format/Info                      : Advanced Audio Codec
Format profile                   : LC
Codec ID                         : 40
Duration                         : 41mn 43s
Bit rate mode                    : Constant
Bit rate                         : 96.0 Kbps
Channel(s)                       : 2 channels
Channel positions                : Front: L R
Sampling rate                    : 44.1 KHz
Compression mode                 : Lossy
Stream size                      : 28.6 MiB (7%)
Language                         : English 
http://img69.imageshack.us/img69/7664/vlcsnap2011040600h06m19.png 
http://img809.imageshack.us/img809/6938/vlcsnap2011040600h06m47.png 
http://img16.imageshack.us/img16/4158/vlcsnap2011040600h07m26.png 
http://img3.imageshack.us/img3/1320/vlcsnap2011040600h07m51.png 
http://img856.imageshack.us/img856/8606/vlcsnap2011040600h08m28.png 
http://img27.imageshack.us/img27/8027/vlcsnap2011040600h08m37.png